<svg width="99" height="69" viewBox="0 0 99 69" fill="none" xmlns="http://www.w3.org/2000/svg">
<path fill-rule="evenodd" clip-rule="evenodd" d="M80.5 69H18.5H18V68.9923C8.01392 68.6844 0 59.1798 0 47.5C0 37.3393 6.06482 28.8248 14.2169 26.5791C14.0739 25.5714 14 24.5436 14 23.5C14 10.5214 25.4167 0 39.5 0C48.8635 0 57.0483 4.651 61.4827 11.5829C63.7791 9.95093 66.5356 9 69.5 9C77.5082 9 84 15.9396 84 24.5C84 26.5035 83.6444 28.4183 82.9969 30.1761C92.0333 31.4612 99 39.623 99 49.5C99 59.0082 92.5437 66.9271 84 68.6515V69H80.5Z" fill="#9657FE"/>
<path fill-rule="evenodd" clip-rule="evenodd" d="M46.3831 20.1715C47.9451 18.6095 50.4778 18.6095 52.0398 20.1715L67.2513 35.3831C68.8134 36.9451 68.8134 39.4778 67.2513 41.0398L66.948 41.3431H56V59C56 60.1046 55.1046 61 54 61H44C42.8954 61 42 60.1046 42 59V41.3431H31.4749L31.1715 41.0398C29.6095 39.4778 29.6095 36.9451 31.1715 35.3831L46.3831 20.1715Z" fill="white"/>
</svg>
